<svg xmlns="http://www.w3.org/2000/svg" width="60" height="60" viewBox="0 0 60 60"><defs><style>.a{fill:#fff;}.b{fill:none;}.c{fill:#8ac43d;stroke:#fff;}</style></defs><g transform="translate(-609 -1419)"><circle class="a" cx="30" cy="30" r="30" transform="translate(609 1419)"/><g transform="translate(621 1431)"><rect class="b" width="36" height="36"/><g transform="translate(3 8)"><path class="c" d="M27.5,6a3.009,3.009,0,0,0-3-3H20V6h4.5V9.975L19.28,16.5H14V9H8a6,6,0,0,0-6,6v4.5H5a4.5,4.5,0,0,0,9,0h6.72l6.78-8.475ZM5,16.5V15a3.009,3.009,0,0,1,3-3h3v4.5ZM9.5,21A1.5,1.5,0,0,1,8,19.5h3A1.5,1.5,0,0,1,9.5,21Z" transform="translate(-2 -3)"/><rect class="c" width="7.5" height="3" transform="translate(4.5 1.5)"/><path class="c" d="M20.5,11A4.5,4.5,0,1,0,25,15.5,4.494,4.494,0,0,0,20.5,11Zm0,6A1.5,1.5,0,1,1,22,15.5,1.5,1.5,0,0,1,20.5,17Z" transform="translate(5 1)"/></g></g></g></svg>