<svg xmlns="http://www.w3.org/2000/svg" width="90" height="90" viewBox="0 0 90 90"><defs><style>.a{fill:#fff;stroke:#707070;opacity:0;}.b{fill:#9c3;stroke:#9c3;stroke-width:0.2px;}.c{stroke:none;}.d{fill:none;}</style></defs><g transform="translate(-225 -1690)"><g class="a" transform="translate(225 1690)"><rect class="c" width="90" height="90"/><rect class="d" x="0.5" y="0.5" width="89" height="89"/></g><path class="b" d="M136.545,143.188a9.937,9.937,0,0,0-3.636.707l-1.443-2.668c.126-.044.223-.116.352-.157a19.762,19.762,0,0,1,5.177-.632l3.806.019a2.6,2.6,0,0,0,1.861-.782,2.662,2.662,0,0,0,.72-1.961c-.252-8.04-5.158-17.428-18.139-17.428a1.3,1.3,0,0,0-.5.1c-1.04.456-2.087,1.477-1.179,3.778.025.063.047.126.072.188l-2.15-.534a1.255,1.255,0,1,0-.607,2.436l3.86.962c.22.547.418,1.04.566,1.436a24.534,24.534,0,0,0-7.248-1.163l-.578-.009c-6.971,0-11.963,3.008-13.377,5.221-2.244-.233-4.495-.456-6.777-.679l-1.806-.174V131.8a2.528,2.528,0,0,0-2.263-2.741l-9.171-1.8c-1.006-.2-2.008-.4-3.011-.619a2.547,2.547,0,0,0-2.845,3.753l1.15,2.254-2.238.751c-.736.252-1.471.5-2.216.72a2.861,2.861,0,0,0-2.128,2.555c-.242,1.641-.519,3.278-.792,4.913l-.27,1.61c-.019.1-.129,1.107-.129,1.505a2.761,2.761,0,0,0,.418,1.593,1.844,1.844,0,0,0,1.54.808,4.066,4.066,0,0,0,2.826-1.719A12.427,12.427,0,0,1,86.6,140.441l.409,0a12.46,12.46,0,0,1,9.033,3.988l-2.3,1.591a10,10,0,1,0,3.153,7.229c0-.277-.066-.547-.088-.82l2.552-.475.226,2.521a3.486,3.486,0,0,0,.786,2.647,2.5,2.5,0,0,0,1.87.833v-2.518c-.066-.057-.192-.327-.151-.943l-.082-.952H120.86c-.028.5-.075,1.009-.059,1.5,0,.179,0,.3.006.352a1.971,1.971,0,0,1-.317.041H102.25l-.016,1.257.1,1.254h18.236c1.933-.119,2.81-1.069,2.744-2.986-.116-3.665,1.455-9.659,5.9-12.613L130.7,145.1a10.025,10.025,0,1,0,5.846-1.908ZM117.995,130a22.214,22.214,0,0,1,6.6,1.075c-3.106,2.181-9.97,5.767-17.847,2.36,1.414-1.361,5.224-3.445,10.73-3.445Zm-34.4-.27,9.382,1.773a1.621,1.621,0,0,1,.025.264l-11.051.333-1.414-3c1.016.226,2.037.43,3.058.631ZM98.472,148.48l.3,1.021-7.729,1.436,6.481-4.476a12.512,12.512,0,0,1,.952,2.018Zm-4.1,4.771a7.6,7.6,0,1,1-2.731-5.777l-6.868,4.743a1.257,1.257,0,0,0,.714,2.291,1.41,1.41,0,0,0,.229-.022l8.618-1.6c.006.123.038.239.038.365Zm26.8-2.222H101.829l-.365-1.254c-.182-.792-.336-1.373-.346-1.4-.066-.21-.164-.4-.239-.6l-.11-.374a1.223,1.223,0,0,0-.16-.3,15.163,15.163,0,0,0-1.672-3.106c-.006-.009-.006-.022-.013-.028-.016-.025-.041-.035-.059-.057a14.749,14.749,0,0,0-11.793-5.975l-.471-.006a14.829,14.829,0,0,0-12.186,5.909,3.353,3.353,0,0,1-.255.286c.022-.233.047-.449.057-.506l.267-1.6c.28-1.653.559-3.307.8-4.966.066-.427.116-.443.333-.5.786-.226,1.562-.49,2.335-.758l3.439-1.153,12.8-.384,2.882.283c2.351.229,4.664.456,7.279.717.072,0,.123-.047.188-.054a19.256,19.256,0,0,0,8.791,2.2c8.524,0,14.684-5.828,14.766-5.9a1.263,1.263,0,0,0,.289-.443c.013-.035.013-.069.022-.1a1.239,1.239,0,0,0,.051-.465c0-.025.013-.051.009-.078-.041-.277-.167-1.119-1.77-4.995l-.192-.522c-.2-.55-.406-1.1-.619-1.637a3.135,3.135,0,0,1-.145-.44c10.79.236,14.886,7.854,15.03,15.134l-3.813-.019a22.734,22.734,0,0,0-5.987.779c-5.478,1.691-8.775,7.025-9.806,12.331Zm15.37,9.766a7.514,7.514,0,0,1-4.63-13.456l3,5.548a1.257,1.257,0,0,0,2.21-1.2l-3-5.548a7.468,7.468,0,0,1,2.423-.434,7.544,7.544,0,1,1,0,15.087Z" transform="translate(160.894 1592.213)"/></g></svg>