<svg xmlns="http://www.w3.org/2000/svg" width="60" height="60" viewBox="0 0 60 60"><defs><style>.a{fill:#fff;}.b,.c{fill:none;}.b{stroke:#8ac43d;stroke-linecap:round;stroke-linejoin:round;stroke-width:2px;}.c{opacity:0;}</style></defs><g transform="translate(-609 -1419)"><circle class="a" cx="30" cy="30" r="30" transform="translate(609 1419)"/><g transform="translate(385 1243)"><g transform="translate(236 188)"><path class="b" d="M10.5,30h9C27,30,30,27,30,19.5v-9C30,3,27,0,19.5,0h-9C3,0,0,3,0,10.5v9C0,27,3,30,10.5,30Z" transform="translate(3 3)"/><path class="b" d="M3,19.5a3.009,3.009,0,0,0,3-3V3A3,3,0,0,0,0,3V16.5A3,3,0,0,0,3,19.5Z" transform="translate(20.25 8.25)"/><path class="b" d="M3,11.25a3.009,3.009,0,0,0,3-3V3A3,3,0,0,0,0,3V8.25A3,3,0,0,0,3,11.25Z" transform="translate(9.75 16.5)"/><path class="c" d="M0,0H36V36H0Z"/></g></g></g></svg>