<svg xmlns="http://www.w3.org/2000/svg" width="90" height="90" viewBox="0 0 90 90"><defs><style>.a{fill:#fff;stroke:#707070;opacity:0;}.b{fill:#9c3;}.c{stroke:none;}.d{fill:none;}</style></defs><g transform="translate(-225 -1690)"><g class="a" transform="translate(225 1690)"><rect class="c" width="90" height="90"/><rect class="d" x="0.5" y="0.5" width="89" height="89"/></g><path class="b" d="M88.619,50.617h3.733V47.589a24.37,24.37,0,0,1,7.093-17.169l.086-.093A24.371,24.371,0,0,1,116.8,23.146h7.489a24.52,24.52,0,0,1,24.444,24.443v3.029h3.733a4.6,4.6,0,0,1,3.154,1.257l.106.1a4.6,4.6,0,0,1,1.354,3.259v12.3a4.621,4.621,0,0,1-4.614,4.613h-3.733v7.523a9.834,9.834,0,0,1-2.81,6.875l-.087.094a9.839,9.839,0,0,1-6.97,2.9H126.085a5.711,5.711,0,1,1-1.462-5.576l.092.1a5.711,5.711,0,0,1,1.37,2.4h12.777a6.775,6.775,0,0,0,4.8-2l.077-.072a6.769,6.769,0,0,0,1.919-4.723V52.155h0V47.588a21.423,21.423,0,0,0-21.367-21.366H116.8A21.3,21.3,0,0,0,101.707,32.5l-.08.075a21.293,21.293,0,0,0-6.2,15.013v4.567h0V70.6a1.538,1.538,0,0,1-1.538,1.538h-5.27a4.633,4.633,0,0,1-4.614-4.613v-12.3a4.6,4.6,0,0,1,1.354-3.259l.106-.1a4.6,4.6,0,0,1,3.154-1.257Zm33.827,35.512a2.364,2.364,0,1,0,.066.063Zm-1.862-57.185a20.968,20.968,0,0,1,15.874,7.584,27.547,27.547,0,0,1,6.475,18.02,27.537,27.537,0,0,1-6.475,18.018,20.406,20.406,0,0,1-31.749,0,27.538,27.538,0,0,1-6.475-18.018,27.547,27.547,0,0,1,6.475-18.02,20.971,20.971,0,0,1,15.874-7.583Zm13.556,9.589a17.363,17.363,0,0,0-27.112,0,24.461,24.461,0,0,0-5.717,16.013,24.452,24.452,0,0,0,5.717,16.012,17.363,17.363,0,0,0,27.112,0,24.456,24.456,0,0,0,5.717-16.012A24.456,24.456,0,0,0,134.139,38.534Zm18.32,15.16h-3.732V69.065h3.732A1.535,1.535,0,0,0,154,67.528v-12.3a1.537,1.537,0,0,0-.452-1.085l-.055-.058a1.544,1.544,0,0,0-1.03-.394Zm-60.109,0H88.619a1.544,1.544,0,0,0-1.03.394l-.055.058a1.537,1.537,0,0,0-.452,1.085v12.3a1.544,1.544,0,0,0,1.538,1.537h3.732Z" transform="translate(148.994 1675.854)"/></g></svg>