<svg xmlns="http://www.w3.org/2000/svg" width="60" height="60" viewBox="0 0 60 60"><defs><style>.a{fill:#fff;}.b,.c{fill:none;}.b{stroke:#8ac43d;stroke-linecap:round;stroke-linejoin:round;stroke-width:2px;}.c{opacity:0;}</style></defs><g transform="translate(-609 -1419)"><circle class="a" cx="30" cy="30" r="30" transform="translate(609 1419)"/><g transform="translate(449 1243)"><g transform="translate(172 188)"><path class="b" d="M15,7.5A7.5,7.5,0,1,1,7.5,0,7.5,7.5,0,0,1,15,7.5Z" transform="translate(10.5 3)"/><path class="b" d="M0,10.5C0,4.7,5.775,0,12.885,0a15.586,15.586,0,0,1,4.14.555" transform="translate(5.115 22.5)"/><path class="b" d="M12,6a5.391,5.391,0,0,1-.18,1.395,5.6,5.6,0,0,1-.69,1.7A5.955,5.955,0,0,1,6,12a5.881,5.881,0,0,1-3.99-1.545A5.525,5.525,0,0,1,.87,9.09,5.881,5.881,0,0,1,0,6,5.991,5.991,0,0,1,6,0a5.916,5.916,0,0,1,4.455,2A5.976,5.976,0,0,1,12,6Z" transform="translate(21 21)"/><g transform="translate(24.765 24.78)"><path class="b" d="M4.47,0H0" transform="translate(0 2.19)"/><path class="b" d="M0,0V4.485" transform="translate(2.235)"/></g><path class="c" d="M0,0H36V36H0Z"/></g></g></g></svg>